<mxfile host="app.diagrams.net" modified="2023-04-26T08:44:42.161Z" agent="Mozilla/5.0 (Windows NT 10.0; Win64; x64) AppleWebKit/537.36 (KHTML, like Gecko) Chrome/112.0.0.0 Safari/537.36" etag="DHw5DziECDh7s9oRdaS8" version="21.2.2" type="github">
  <diagram id="prtHgNgQTEPvFCAcTncT" name="Page-1">
    <mxGraphModel dx="1802" dy="837" grid="1" gridSize="10" guides="1" tooltips="1" connect="1" arrows="1" fold="1" page="1" pageScale="1" pageWidth="827" pageHeight="1169" math="0" shadow="0">
      <root>
        <mxCell id="0" />
        <mxCell id="1" parent="0" />
        <mxCell id="dNxyNK7c78bLwvsdeMH5-19" value="SEATA TRANSACTION FLOW" style="swimlane;html=1;childLayout=stackLayout;resizeParent=1;resizeParentMax=0;horizontal=0;startSize=20;horizontalStack=0;fontColor=#F0F0F0;" parent="1" vertex="1">
          <mxGeometry x="20" y="40" width="1620" height="450" as="geometry" />
        </mxCell>
        <mxCell id="dNxyNK7c78bLwvsdeMH5-31" style="edgeStyle=orthogonalEdgeStyle;rounded=0;orthogonalLoop=1;jettySize=auto;html=1;endArrow=classic;endFill=1;exitX=0.5;exitY=0;exitDx=0;exitDy=0;entryX=0;entryY=0.5;entryDx=0;entryDy=0;fontColor=#F0F0F0;" parent="dNxyNK7c78bLwvsdeMH5-19" source="dNxyNK7c78bLwvsdeMH5-26" target="dNxyNK7c78bLwvsdeMH5-24" edge="1">
          <mxGeometry relative="1" as="geometry" />
        </mxCell>
        <mxCell id="dNxyNK7c78bLwvsdeMH5-20" value="TC" style="swimlane;html=1;startSize=20;horizontal=0;fontColor=#F0F0F0;" parent="dNxyNK7c78bLwvsdeMH5-19" vertex="1">
          <mxGeometry x="20" width="1600" height="210" as="geometry" />
        </mxCell>
        <mxCell id="d-oNC6kE6kxb4CZ7EZcE-3" style="edgeStyle=orthogonalEdgeStyle;rounded=0;orthogonalLoop=1;jettySize=auto;html=1;exitX=0.5;exitY=0;exitDx=0;exitDy=0;entryX=0.5;entryY=1;entryDx=0;entryDy=0;fontColor=#F0F0F0;" parent="dNxyNK7c78bLwvsdeMH5-20" source="dNxyNK7c78bLwvsdeMH5-24" target="d-oNC6kE6kxb4CZ7EZcE-2" edge="1">
          <mxGeometry relative="1" as="geometry" />
        </mxCell>
        <mxCell id="d-oNC6kE6kxb4CZ7EZcE-25" value="创建 Trx_id" style="edgeLabel;html=1;align=center;verticalAlign=middle;resizable=0;points=[];fontColor=#F0F0F0;" parent="d-oNC6kE6kxb4CZ7EZcE-3" vertex="1" connectable="0">
          <mxGeometry x="-0.2927" y="-3" relative="1" as="geometry">
            <mxPoint x="-88" y="52" as="offset" />
          </mxGeometry>
        </mxCell>
        <mxCell id="dNxyNK7c78bLwvsdeMH5-24" value="Register to&amp;nbsp;&lt;br&gt;start a glocal&lt;br&gt;Transaction" style="rounded=0;whiteSpace=wrap;html=1;fontFamily=Helvetica;fontSize=12;fontColor=#F0F0F0;align=center;fontStyle=1" parent="dNxyNK7c78bLwvsdeMH5-20" vertex="1">
          <mxGeometry x="180" y="129" width="80" height="60" as="geometry" />
        </mxCell>
        <mxCell id="d-oNC6kE6kxb4CZ7EZcE-7" value="Rollback" style="edgeStyle=orthogonalEdgeStyle;rounded=0;orthogonalLoop=1;jettySize=auto;html=1;exitX=0.5;exitY=0;exitDx=0;exitDy=0;entryX=0.75;entryY=1;entryDx=0;entryDy=0;fontColor=#F0F0F0;" parent="dNxyNK7c78bLwvsdeMH5-20" source="okEvWX8VrjNMSibzl_vv-24" target="d-oNC6kE6kxb4CZ7EZcE-2" edge="1">
          <mxGeometry x="-0.8581" relative="1" as="geometry">
            <mxPoint as="offset" />
          </mxGeometry>
        </mxCell>
        <mxCell id="okEvWX8VrjNMSibzl_vv-24" value="Report Failure" style="rounded=0;whiteSpace=wrap;html=1;fontFamily=Helvetica;fontSize=12;fontColor=#F0F0F0;align=center;" parent="dNxyNK7c78bLwvsdeMH5-20" vertex="1">
          <mxGeometry x="353" y="129" width="80" height="60" as="geometry" />
        </mxCell>
        <mxCell id="d-oNC6kE6kxb4CZ7EZcE-8" style="edgeStyle=orthogonalEdgeStyle;rounded=0;orthogonalLoop=1;jettySize=auto;html=1;exitX=0;exitY=0.5;exitDx=0;exitDy=0;entryX=1;entryY=0.75;entryDx=0;entryDy=0;fontColor=#F0F0F0;" parent="dNxyNK7c78bLwvsdeMH5-20" source="okEvWX8VrjNMSibzl_vv-32" target="d-oNC6kE6kxb4CZ7EZcE-2" edge="1">
          <mxGeometry relative="1" as="geometry" />
        </mxCell>
        <mxCell id="d-oNC6kE6kxb4CZ7EZcE-10" style="edgeStyle=orthogonalEdgeStyle;rounded=0;orthogonalLoop=1;jettySize=auto;html=1;exitX=0;exitY=0.5;exitDx=0;exitDy=0;entryX=1;entryY=0.75;entryDx=0;entryDy=0;fontColor=#F0F0F0;" parent="dNxyNK7c78bLwvsdeMH5-20" source="okEvWX8VrjNMSibzl_vv-32" target="d-oNC6kE6kxb4CZ7EZcE-2" edge="1">
          <mxGeometry relative="1" as="geometry" />
        </mxCell>
        <mxCell id="okEvWX8VrjNMSibzl_vv-32" value="Registry&lt;br&gt;RM transaction" style="rounded=0;whiteSpace=wrap;html=1;fontFamily=Helvetica;fontSize=12;fontColor=#F0F0F0;align=center;direction=south;fontStyle=1" parent="dNxyNK7c78bLwvsdeMH5-20" vertex="1">
          <mxGeometry x="651" y="129" width="90" height="55" as="geometry" />
        </mxCell>
        <mxCell id="d-oNC6kE6kxb4CZ7EZcE-14" style="edgeStyle=orthogonalEdgeStyle;rounded=0;orthogonalLoop=1;jettySize=auto;html=1;exitX=0;exitY=0.5;exitDx=0;exitDy=0;entryX=0.75;entryY=0;entryDx=0;entryDy=0;fontColor=#F0F0F0;" parent="dNxyNK7c78bLwvsdeMH5-20" source="okEvWX8VrjNMSibzl_vv-42" target="d-oNC6kE6kxb4CZ7EZcE-2" edge="1">
          <mxGeometry relative="1" as="geometry" />
        </mxCell>
        <mxCell id="okEvWX8VrjNMSibzl_vv-42" value="Report status:&lt;br&gt;try success" style="rounded=0;whiteSpace=wrap;html=1;fontFamily=Helvetica;fontSize=12;fontColor=#F0F0F0;align=center;direction=south;fontStyle=1" parent="dNxyNK7c78bLwvsdeMH5-20" vertex="1">
          <mxGeometry x="1000" y="129" width="110" height="55" as="geometry" />
        </mxCell>
        <mxCell id="d-oNC6kE6kxb4CZ7EZcE-11" value="Rollback" style="edgeStyle=orthogonalEdgeStyle;rounded=0;orthogonalLoop=1;jettySize=auto;html=1;exitX=0.5;exitY=0;exitDx=0;exitDy=0;entryX=1;entryY=0.25;entryDx=0;entryDy=0;fontColor=#F0F0F0;" parent="dNxyNK7c78bLwvsdeMH5-20" source="okEvWX8VrjNMSibzl_vv-50" target="d-oNC6kE6kxb4CZ7EZcE-2" edge="1">
          <mxGeometry relative="1" as="geometry" />
        </mxCell>
        <mxCell id="okEvWX8VrjNMSibzl_vv-50" value="Report Failure" style="rounded=0;whiteSpace=wrap;html=1;fontFamily=Helvetica;fontSize=12;fontColor=#F0F0F0;align=center;" parent="dNxyNK7c78bLwvsdeMH5-20" vertex="1">
          <mxGeometry x="839" y="131.5" width="80" height="60" as="geometry" />
        </mxCell>
        <mxCell id="d-oNC6kE6kxb4CZ7EZcE-15" style="edgeStyle=orthogonalEdgeStyle;rounded=0;orthogonalLoop=1;jettySize=auto;html=1;exitX=0.5;exitY=0;exitDx=0;exitDy=0;entryX=0.5;entryY=0;entryDx=0;entryDy=0;fontColor=#F0F0F0;" parent="dNxyNK7c78bLwvsdeMH5-20" source="okEvWX8VrjNMSibzl_vv-53" target="d-oNC6kE6kxb4CZ7EZcE-2" edge="1">
          <mxGeometry relative="1" as="geometry" />
        </mxCell>
        <mxCell id="d-oNC6kE6kxb4CZ7EZcE-17" value="Rollback" style="edgeLabel;html=1;align=center;verticalAlign=middle;resizable=0;points=[];fontColor=#F0F0F0;" parent="d-oNC6kE6kxb4CZ7EZcE-15" vertex="1" connectable="0">
          <mxGeometry x="-0.6484" relative="1" as="geometry">
            <mxPoint x="1" y="29" as="offset" />
          </mxGeometry>
        </mxCell>
        <mxCell id="okEvWX8VrjNMSibzl_vv-53" value="Report Failure" style="rounded=0;whiteSpace=wrap;html=1;fontFamily=Helvetica;fontSize=12;fontColor=#F0F0F0;align=center;" parent="dNxyNK7c78bLwvsdeMH5-20" vertex="1">
          <mxGeometry x="1150" y="129" width="80" height="60" as="geometry" />
        </mxCell>
        <mxCell id="d-oNC6kE6kxb4CZ7EZcE-16" style="edgeStyle=orthogonalEdgeStyle;rounded=0;orthogonalLoop=1;jettySize=auto;html=1;exitX=0;exitY=0.5;exitDx=0;exitDy=0;entryX=0.25;entryY=0;entryDx=0;entryDy=0;fontColor=#F0F0F0;" parent="dNxyNK7c78bLwvsdeMH5-20" source="okEvWX8VrjNMSibzl_vv-63" target="d-oNC6kE6kxb4CZ7EZcE-2" edge="1">
          <mxGeometry relative="1" as="geometry" />
        </mxCell>
        <mxCell id="d-oNC6kE6kxb4CZ7EZcE-23" value="commit" style="edgeLabel;html=1;align=center;verticalAlign=middle;resizable=0;points=[];fontColor=#F0F0F0;" parent="d-oNC6kE6kxb4CZ7EZcE-16" vertex="1" connectable="0">
          <mxGeometry x="-0.835" y="4" relative="1" as="geometry">
            <mxPoint x="4" y="10" as="offset" />
          </mxGeometry>
        </mxCell>
        <mxCell id="okEvWX8VrjNMSibzl_vv-63" value="Report Status:&lt;br&gt;All success" style="rounded=0;whiteSpace=wrap;html=1;fontFamily=Helvetica;fontSize=12;fontColor=#F0F0F0;align=center;direction=south;" parent="dNxyNK7c78bLwvsdeMH5-20" vertex="1">
          <mxGeometry x="1270" y="131.5" width="110" height="55" as="geometry" />
        </mxCell>
        <mxCell id="d-oNC6kE6kxb4CZ7EZcE-2" value="&lt;b&gt;SEATA SERVER&lt;/b&gt;&lt;br&gt;事务元数据（trx_id, branch_id, try, commit, cancel）&lt;br&gt;事务执行状态&lt;br&gt;全局锁" style="rounded=0;whiteSpace=wrap;html=1;fontFamily=Helvetica;fontSize=12;fontColor=#F0F0F0;align=center;direction=south;" parent="dNxyNK7c78bLwvsdeMH5-20" vertex="1">
          <mxGeometry x="605" y="17" width="365" height="75" as="geometry" />
        </mxCell>
        <mxCell id="dNxyNK7c78bLwvsdeMH5-21" value="TM" style="swimlane;html=1;startSize=20;horizontal=0;fontColor=#F0F0F0;" parent="dNxyNK7c78bLwvsdeMH5-19" vertex="1">
          <mxGeometry x="20" y="210" width="1600" height="120" as="geometry" />
        </mxCell>
        <mxCell id="dNxyNK7c78bLwvsdeMH5-26" value="@Global&lt;br&gt;Transaction" style="rounded=0;whiteSpace=wrap;html=1;fontFamily=Helvetica;fontSize=12;fontColor=#F0F0F0;align=center;" parent="dNxyNK7c78bLwvsdeMH5-21" vertex="1">
          <mxGeometry x="110" y="30" width="90" height="60" as="geometry" />
        </mxCell>
        <mxCell id="d-oNC6kE6kxb4CZ7EZcE-1" style="edgeStyle=orthogonalEdgeStyle;rounded=0;orthogonalLoop=1;jettySize=auto;html=1;exitX=1;exitY=0.5;exitDx=0;exitDy=0;entryX=0;entryY=0.5;entryDx=0;entryDy=0;fontColor=#F0F0F0;" parent="dNxyNK7c78bLwvsdeMH5-21" source="dNxyNK7c78bLwvsdeMH5-23" target="dNxyNK7c78bLwvsdeMH5-26" edge="1">
          <mxGeometry relative="1" as="geometry" />
        </mxCell>
        <mxCell id="dNxyNK7c78bLwvsdeMH5-23" value="请求" style="ellipse;whiteSpace=wrap;html=1;fontColor=#F0F0F0;" parent="dNxyNK7c78bLwvsdeMH5-21" vertex="1">
          <mxGeometry x="50" y="40" width="40" height="40" as="geometry" />
        </mxCell>
        <mxCell id="tBc13TEcyqmf-fDY2zHT-1" style="edgeStyle=orthogonalEdgeStyle;rounded=0;orthogonalLoop=1;jettySize=auto;html=1;exitX=1;exitY=0.5;exitDx=0;exitDy=0;entryX=0;entryY=0.5;entryDx=0;entryDy=0;" parent="dNxyNK7c78bLwvsdeMH5-21" source="okEvWX8VrjNMSibzl_vv-4" target="dNxyNK7c78bLwvsdeMH5-36" edge="1">
          <mxGeometry relative="1" as="geometry" />
        </mxCell>
        <mxCell id="okEvWX8VrjNMSibzl_vv-4" value="Start step1:&lt;br&gt;&lt;b&gt;createOrder&lt;/b&gt;" style="rounded=0;whiteSpace=wrap;html=1;fontFamily=Helvetica;fontSize=12;fontColor=#F0F0F0;align=center;" parent="dNxyNK7c78bLwvsdeMH5-21" vertex="1">
          <mxGeometry x="240" y="30" width="90" height="60" as="geometry" />
        </mxCell>
        <mxCell id="okEvWX8VrjNMSibzl_vv-23" value="Yes" style="edgeStyle=orthogonalEdgeStyle;rounded=0;orthogonalLoop=1;jettySize=auto;html=1;exitX=1;exitY=0.5;exitDx=0;exitDy=0;entryX=0;entryY=0.5;entryDx=0;entryDy=0;fontColor=#F0F0F0;" parent="dNxyNK7c78bLwvsdeMH5-21" source="dNxyNK7c78bLwvsdeMH5-36" target="okEvWX8VrjNMSibzl_vv-22" edge="1">
          <mxGeometry relative="1" as="geometry" />
        </mxCell>
        <mxCell id="dNxyNK7c78bLwvsdeMH5-36" value="Success" style="rhombus;whiteSpace=wrap;html=1;fontFamily=Helvetica;fontSize=12;fontColor=#F0F0F0;align=center;" parent="dNxyNK7c78bLwvsdeMH5-21" vertex="1">
          <mxGeometry x="360" y="30" width="66" height="60" as="geometry" />
        </mxCell>
        <mxCell id="okEvWX8VrjNMSibzl_vv-22" value="Continue to step2:&lt;br&gt;&lt;b&gt;deductAccount&lt;/b&gt;" style="rounded=0;whiteSpace=wrap;html=1;fontFamily=Helvetica;fontSize=12;fontColor=#F0F0F0;align=center;" parent="dNxyNK7c78bLwvsdeMH5-21" vertex="1">
          <mxGeometry x="470" y="30" width="110" height="60" as="geometry" />
        </mxCell>
        <mxCell id="okEvWX8VrjNMSibzl_vv-52" style="edgeStyle=orthogonalEdgeStyle;rounded=0;orthogonalLoop=1;jettySize=auto;html=1;exitX=0.5;exitY=0;exitDx=0;exitDy=0;entryX=0;entryY=0.5;entryDx=0;entryDy=0;fontColor=#F0F0F0;" parent="dNxyNK7c78bLwvsdeMH5-21" source="okEvWX8VrjNMSibzl_vv-38" target="okEvWX8VrjNMSibzl_vv-51" edge="1">
          <mxGeometry relative="1" as="geometry" />
        </mxCell>
        <mxCell id="okEvWX8VrjNMSibzl_vv-38" value="Process to step3:&lt;br&gt;&lt;b&gt;deductStorage&lt;/b&gt;" style="rounded=0;whiteSpace=wrap;html=1;fontFamily=Helvetica;fontSize=12;fontColor=#F0F0F0;align=center;direction=south;" parent="dNxyNK7c78bLwvsdeMH5-21" vertex="1">
          <mxGeometry x="1000" y="32.5" width="110" height="55" as="geometry" />
        </mxCell>
        <mxCell id="okEvWX8VrjNMSibzl_vv-51" value="Success" style="rhombus;whiteSpace=wrap;html=1;fontFamily=Helvetica;fontSize=12;fontColor=#F0F0F0;align=center;" parent="dNxyNK7c78bLwvsdeMH5-21" vertex="1">
          <mxGeometry x="1158" y="30" width="66" height="60" as="geometry" />
        </mxCell>
        <mxCell id="d-oNC6kE6kxb4CZ7EZcE-28" style="edgeStyle=orthogonalEdgeStyle;rounded=0;orthogonalLoop=1;jettySize=auto;html=1;exitX=1;exitY=0.5;exitDx=0;exitDy=0;entryX=0;entryY=0.5;entryDx=0;entryDy=0;fontColor=#F0F0F0;" parent="dNxyNK7c78bLwvsdeMH5-21" source="d-oNC6kE6kxb4CZ7EZcE-26" target="d-oNC6kE6kxb4CZ7EZcE-20" edge="1">
          <mxGeometry relative="1" as="geometry" />
        </mxCell>
        <mxCell id="d-oNC6kE6kxb4CZ7EZcE-26" value="Return" style="rounded=0;whiteSpace=wrap;html=1;fontFamily=Helvetica;fontSize=12;fontColor=#F0F0F0;align=center;" parent="dNxyNK7c78bLwvsdeMH5-21" vertex="1">
          <mxGeometry x="1377" y="30" width="80" height="60" as="geometry" />
        </mxCell>
        <mxCell id="d-oNC6kE6kxb4CZ7EZcE-20" value="Response" style="ellipse;whiteSpace=wrap;html=1;fontColor=#F0F0F0;" parent="dNxyNK7c78bLwvsdeMH5-21" vertex="1">
          <mxGeometry x="1500" y="40" width="70" height="40" as="geometry" />
        </mxCell>
        <mxCell id="mjdFwXQ91mD9-8cXEvQh-1" value="&lt;font style=&quot;font-size: 18px;&quot;&gt;①&lt;/font&gt;" style="text;html=1;align=center;verticalAlign=middle;resizable=0;points=[];autosize=1;strokeColor=none;fillColor=none;" vertex="1" parent="dNxyNK7c78bLwvsdeMH5-21">
          <mxGeometry x="940" y="23" width="40" height="40" as="geometry" />
        </mxCell>
        <mxCell id="okEvWX8VrjNMSibzl_vv-25" value="No" style="edgeStyle=orthogonalEdgeStyle;rounded=0;orthogonalLoop=1;jettySize=auto;html=1;exitX=0.5;exitY=0;exitDx=0;exitDy=0;entryX=0.5;entryY=1;entryDx=0;entryDy=0;fontColor=#F0F0F0;" parent="dNxyNK7c78bLwvsdeMH5-19" source="dNxyNK7c78bLwvsdeMH5-36" target="okEvWX8VrjNMSibzl_vv-24" edge="1">
          <mxGeometry relative="1" as="geometry" />
        </mxCell>
        <mxCell id="okEvWX8VrjNMSibzl_vv-27" value="Feign" style="edgeStyle=orthogonalEdgeStyle;rounded=0;orthogonalLoop=1;jettySize=auto;html=1;exitX=0.5;exitY=1;exitDx=0;exitDy=0;entryX=0.5;entryY=1;entryDx=0;entryDy=0;fontStyle=1;fontColor=#F0F0F0;" parent="dNxyNK7c78bLwvsdeMH5-19" source="okEvWX8VrjNMSibzl_vv-22" target="okEvWX8VrjNMSibzl_vv-26" edge="1">
          <mxGeometry relative="1" as="geometry" />
        </mxCell>
        <mxCell id="okEvWX8VrjNMSibzl_vv-1" style="edgeStyle=orthogonalEdgeStyle;rounded=0;orthogonalLoop=1;jettySize=auto;html=1;exitX=1;exitY=0.5;exitDx=0;exitDy=0;entryX=0.5;entryY=0;entryDx=0;entryDy=0;fontColor=#F0F0F0;" parent="dNxyNK7c78bLwvsdeMH5-19" source="dNxyNK7c78bLwvsdeMH5-24" target="okEvWX8VrjNMSibzl_vv-4" edge="1">
          <mxGeometry relative="1" as="geometry">
            <mxPoint x="260" y="60" as="targetPoint" />
          </mxGeometry>
        </mxCell>
        <mxCell id="okEvWX8VrjNMSibzl_vv-36" style="edgeStyle=orthogonalEdgeStyle;rounded=0;orthogonalLoop=1;jettySize=auto;html=1;exitX=0.5;exitY=0;exitDx=0;exitDy=0;entryX=0;entryY=0.5;entryDx=0;entryDy=0;fontColor=#F0F0F0;" parent="dNxyNK7c78bLwvsdeMH5-19" source="okEvWX8VrjNMSibzl_vv-32" target="okEvWX8VrjNMSibzl_vv-37" edge="1">
          <mxGeometry relative="1" as="geometry">
            <mxPoint x="740" y="270" as="targetPoint" />
            <mxPoint x="740" y="92.5" as="sourcePoint" />
          </mxGeometry>
        </mxCell>
        <mxCell id="okEvWX8VrjNMSibzl_vv-39" style="edgeStyle=orthogonalEdgeStyle;rounded=0;orthogonalLoop=1;jettySize=auto;html=1;exitX=0;exitY=0.5;exitDx=0;exitDy=0;entryX=0.5;entryY=1;entryDx=0;entryDy=0;fontColor=#F0F0F0;" parent="dNxyNK7c78bLwvsdeMH5-19" source="okEvWX8VrjNMSibzl_vv-26" target="okEvWX8VrjNMSibzl_vv-32" edge="1">
          <mxGeometry relative="1" as="geometry" />
        </mxCell>
        <mxCell id="okEvWX8VrjNMSibzl_vv-54" value="No" style="edgeStyle=orthogonalEdgeStyle;rounded=0;orthogonalLoop=1;jettySize=auto;html=1;exitX=0.5;exitY=0;exitDx=0;exitDy=0;entryX=0.5;entryY=1;entryDx=0;entryDy=0;fontColor=#F0F0F0;" parent="dNxyNK7c78bLwvsdeMH5-19" source="okEvWX8VrjNMSibzl_vv-51" target="okEvWX8VrjNMSibzl_vv-53" edge="1">
          <mxGeometry relative="1" as="geometry" />
        </mxCell>
        <mxCell id="okEvWX8VrjNMSibzl_vv-64" style="edgeStyle=orthogonalEdgeStyle;rounded=0;orthogonalLoop=1;jettySize=auto;html=1;exitX=1;exitY=0.5;exitDx=0;exitDy=0;entryX=1;entryY=0.5;entryDx=0;entryDy=0;fontColor=#F0F0F0;" parent="dNxyNK7c78bLwvsdeMH5-19" source="okEvWX8VrjNMSibzl_vv-51" target="okEvWX8VrjNMSibzl_vv-63" edge="1">
          <mxGeometry relative="1" as="geometry" />
        </mxCell>
        <mxCell id="d-oNC6kE6kxb4CZ7EZcE-22" value="Yes" style="edgeLabel;html=1;align=center;verticalAlign=middle;resizable=0;points=[];fontColor=#F0F0F0;" parent="okEvWX8VrjNMSibzl_vv-64" vertex="1" connectable="0">
          <mxGeometry x="-0.6278" relative="1" as="geometry">
            <mxPoint as="offset" />
          </mxGeometry>
        </mxCell>
        <mxCell id="okEvWX8VrjNMSibzl_vv-43" style="edgeStyle=orthogonalEdgeStyle;rounded=0;orthogonalLoop=1;jettySize=auto;html=1;exitX=0.5;exitY=0;exitDx=0;exitDy=0;entryX=0.5;entryY=1;entryDx=0;entryDy=0;fontColor=#F0F0F0;" parent="dNxyNK7c78bLwvsdeMH5-19" source="okEvWX8VrjNMSibzl_vv-45" target="okEvWX8VrjNMSibzl_vv-50" edge="1">
          <mxGeometry relative="1" as="geometry">
            <mxPoint x="903" y="90" as="targetPoint" />
          </mxGeometry>
        </mxCell>
        <mxCell id="okEvWX8VrjNMSibzl_vv-47" value="No" style="edgeLabel;html=1;align=center;verticalAlign=middle;resizable=0;points=[];fontColor=#F0F0F0;" parent="okEvWX8VrjNMSibzl_vv-43" vertex="1" connectable="0">
          <mxGeometry x="-0.2862" y="-3" relative="1" as="geometry">
            <mxPoint as="offset" />
          </mxGeometry>
        </mxCell>
        <mxCell id="okEvWX8VrjNMSibzl_vv-65" style="edgeStyle=orthogonalEdgeStyle;rounded=0;orthogonalLoop=1;jettySize=auto;html=1;exitX=1;exitY=0.5;exitDx=0;exitDy=0;entryX=1;entryY=0.5;entryDx=0;entryDy=0;fontColor=#F0F0F0;" parent="dNxyNK7c78bLwvsdeMH5-19" source="okEvWX8VrjNMSibzl_vv-45" target="okEvWX8VrjNMSibzl_vv-38" edge="1">
          <mxGeometry relative="1" as="geometry" />
        </mxCell>
        <mxCell id="mjdFwXQ91mD9-8cXEvQh-2" value="&lt;font style=&quot;font-size: 18px;&quot;&gt;②&lt;/font&gt;" style="edgeLabel;html=1;align=center;verticalAlign=middle;resizable=0;points=[];" vertex="1" connectable="0" parent="okEvWX8VrjNMSibzl_vv-65">
          <mxGeometry x="0.3353" y="-1" relative="1" as="geometry">
            <mxPoint as="offset" />
          </mxGeometry>
        </mxCell>
        <mxCell id="okEvWX8VrjNMSibzl_vv-66" value="Yes" style="edgeStyle=orthogonalEdgeStyle;rounded=0;orthogonalLoop=1;jettySize=auto;html=1;exitX=1;exitY=0.5;exitDx=0;exitDy=0;entryX=0.606;entryY=1;entryDx=0;entryDy=0;entryPerimeter=0;fontColor=#F0F0F0;" parent="dNxyNK7c78bLwvsdeMH5-19" source="okEvWX8VrjNMSibzl_vv-45" target="okEvWX8VrjNMSibzl_vv-42" edge="1">
          <mxGeometry x="-0.8223" relative="1" as="geometry">
            <mxPoint as="offset" />
            <Array as="points">
              <mxPoint x="980" y="390" />
              <mxPoint x="980" y="162" />
            </Array>
          </mxGeometry>
        </mxCell>
        <mxCell id="dNxyNK7c78bLwvsdeMH5-22" value="RM" style="swimlane;html=1;startSize=20;horizontal=0;fontColor=#F0F0F0;" parent="dNxyNK7c78bLwvsdeMH5-19" vertex="1">
          <mxGeometry x="20" y="330" width="1600" height="120" as="geometry" />
        </mxCell>
        <mxCell id="okEvWX8VrjNMSibzl_vv-26" value="@LocalTCC&lt;br&gt;@TwoPhrase(name, commit, cancel)" style="rounded=0;whiteSpace=wrap;html=1;fontFamily=Helvetica;fontSize=12;fontColor=#F0F0F0;align=center;direction=south;" parent="dNxyNK7c78bLwvsdeMH5-22" vertex="1">
          <mxGeometry x="570" y="32.5" width="120" height="55" as="geometry" />
        </mxCell>
        <mxCell id="d-oNC6kE6kxb4CZ7EZcE-13" style="edgeStyle=orthogonalEdgeStyle;rounded=0;orthogonalLoop=1;jettySize=auto;html=1;exitX=0.5;exitY=0;exitDx=0;exitDy=0;entryX=0;entryY=0.5;entryDx=0;entryDy=0;fontColor=#F0F0F0;" parent="dNxyNK7c78bLwvsdeMH5-22" source="okEvWX8VrjNMSibzl_vv-37" target="okEvWX8VrjNMSibzl_vv-45" edge="1">
          <mxGeometry relative="1" as="geometry" />
        </mxCell>
        <mxCell id="okEvWX8VrjNMSibzl_vv-37" value="try: 余额扣除+记录事务中间表" style="rounded=0;whiteSpace=wrap;html=1;fontFamily=Helvetica;fontSize=12;fontColor=#F0F0F0;align=center;direction=south;" parent="dNxyNK7c78bLwvsdeMH5-22" vertex="1">
          <mxGeometry x="711" y="32.5" width="100" height="55" as="geometry" />
        </mxCell>
        <mxCell id="okEvWX8VrjNMSibzl_vv-45" value="Success" style="rhombus;whiteSpace=wrap;html=1;fontFamily=Helvetica;fontSize=12;fontColor=#F0F0F0;align=center;" parent="dNxyNK7c78bLwvsdeMH5-22" vertex="1">
          <mxGeometry x="846" y="29.5" width="66" height="60" as="geometry" />
        </mxCell>
        <mxCell id="d-oNC6kE6kxb4CZ7EZcE-29" style="edgeStyle=orthogonalEdgeStyle;rounded=0;orthogonalLoop=1;jettySize=auto;html=1;exitX=0.5;exitY=0;exitDx=0;exitDy=0;entryX=0.5;entryY=0;entryDx=0;entryDy=0;fontColor=#F0F0F0;" parent="dNxyNK7c78bLwvsdeMH5-19" source="okEvWX8VrjNMSibzl_vv-63" target="d-oNC6kE6kxb4CZ7EZcE-26" edge="1">
          <mxGeometry relative="1" as="geometry" />
        </mxCell>
        <mxCell id="d-oNC6kE6kxb4CZ7EZcE-30" value="After Commit" style="edgeLabel;html=1;align=center;verticalAlign=middle;resizable=0;points=[];fontColor=#F0F0F0;" parent="d-oNC6kE6kxb4CZ7EZcE-29" vertex="1" connectable="0">
          <mxGeometry x="0.1368" relative="1" as="geometry">
            <mxPoint y="3" as="offset" />
          </mxGeometry>
        </mxCell>
        <mxCell id="d-oNC6kE6kxb4CZ7EZcE-31" value="1. 事务过程中，SEATA server 持续与TM RM交互，任何一次通讯因网络失败 或服务宕机 都会导致全局事务的失败；&lt;br&gt;2. 如 Seata server 宕机，一定重试次数内重启或接到被阻塞的网络请求，则可以继续事务；&lt;br&gt;3.但超出充实的次数，就会放弃该次事务，会造成事务执行到一半烂尾的情况；&lt;br&gt;4. 但我们可以从 SEATA 元数据，配合RM的事务中间表 来重新捕捉未执行完的情况" style="text;html=1;align=left;verticalAlign=middle;resizable=0;points=[];autosize=1;strokeColor=none;fillColor=none;" parent="1" vertex="1">
          <mxGeometry x="150" y="540" width="640" height="70" as="geometry" />
        </mxCell>
      </root>
    </mxGraphModel>
  </diagram>
</mxfile>
